<mxfile host="Electron" modified="2023-09-08T18:53:29.872Z" agent="Mozilla/5.0 (Windows NT 10.0; Win64; x64) AppleWebKit/537.36 (KHTML, like Gecko) draw.io/21.6.8 Chrome/114.0.5735.289 Electron/25.5.0 Safari/537.36" etag="r67-FaBN1MYYLNzpeoWR" version="21.6.8" type="device">
  <diagram name="Page-1" id="VSTiimNs4ygcrZrmhFy_">
    <mxGraphModel dx="2868" dy="2572" grid="1" gridSize="10" guides="1" tooltips="1" connect="1" arrows="1" fold="1" page="1" pageScale="1" pageWidth="1600" pageHeight="900" math="0" shadow="0">
      <root>
        <mxCell id="0" />
        <mxCell id="1" parent="0" />
        <mxCell id="eyhPEgxVy8rwkxTOJS7A-3" value="" style="ellipse;html=1;shape=endState;fillColor=#000000;strokeColor=#ff0000;" parent="1" vertex="1">
          <mxGeometry x="270" y="1500" width="30" height="30" as="geometry" />
        </mxCell>
        <mxCell id="eyhPEgxVy8rwkxTOJS7A-14" value="" style="edgeStyle=orthogonalEdgeStyle;rounded=0;orthogonalLoop=1;jettySize=auto;html=1;" parent="1" source="eyhPEgxVy8rwkxTOJS7A-8" target="eyhPEgxVy8rwkxTOJS7A-13" edge="1">
          <mxGeometry relative="1" as="geometry" />
        </mxCell>
        <mxCell id="eyhPEgxVy8rwkxTOJS7A-20" style="edgeStyle=orthogonalEdgeStyle;rounded=0;orthogonalLoop=1;jettySize=auto;html=1;exitX=1;exitY=0.5;exitDx=0;exitDy=0;" parent="1" source="eyhPEgxVy8rwkxTOJS7A-8" edge="1">
          <mxGeometry relative="1" as="geometry">
            <mxPoint x="480" y="380.27272727272737" as="targetPoint" />
          </mxGeometry>
        </mxCell>
        <mxCell id="eyhPEgxVy8rwkxTOJS7A-8" value="Manage Bookings" style="rhombus;whiteSpace=wrap;html=1;" parent="1" vertex="1">
          <mxGeometry x="217.5" y="340" width="135" height="80" as="geometry" />
        </mxCell>
        <mxCell id="eyhPEgxVy8rwkxTOJS7A-11" style="edgeStyle=orthogonalEdgeStyle;rounded=0;orthogonalLoop=1;jettySize=auto;html=1;exitX=0.5;exitY=1;exitDx=0;exitDy=0;entryX=0.5;entryY=0;entryDx=0;entryDy=0;" parent="1" source="eyhPEgxVy8rwkxTOJS7A-9" target="eyhPEgxVy8rwkxTOJS7A-8" edge="1">
          <mxGeometry relative="1" as="geometry" />
        </mxCell>
        <mxCell id="eyhPEgxVy8rwkxTOJS7A-9" value="Choose Management Task" style="rounded=1;whiteSpace=wrap;html=1;" parent="1" vertex="1">
          <mxGeometry x="225" y="240" width="120" height="60" as="geometry" />
        </mxCell>
        <mxCell id="eyhPEgxVy8rwkxTOJS7A-16" value="" style="edgeStyle=orthogonalEdgeStyle;rounded=0;orthogonalLoop=1;jettySize=auto;html=1;" parent="1" source="eyhPEgxVy8rwkxTOJS7A-13" target="eyhPEgxVy8rwkxTOJS7A-15" edge="1">
          <mxGeometry relative="1" as="geometry" />
        </mxCell>
        <mxCell id="eyhPEgxVy8rwkxTOJS7A-69" style="edgeStyle=orthogonalEdgeStyle;rounded=0;orthogonalLoop=1;jettySize=auto;html=1;exitX=1;exitY=0.5;exitDx=0;exitDy=0;" parent="1" source="eyhPEgxVy8rwkxTOJS7A-13" target="eyhPEgxVy8rwkxTOJS7A-68" edge="1">
          <mxGeometry relative="1" as="geometry" />
        </mxCell>
        <mxCell id="eyhPEgxVy8rwkxTOJS7A-13" value="Manage Services" style="rhombus;whiteSpace=wrap;html=1;" parent="1" vertex="1">
          <mxGeometry x="217.5" y="470" width="135" height="80" as="geometry" />
        </mxCell>
        <mxCell id="eyhPEgxVy8rwkxTOJS7A-18" value="" style="edgeStyle=orthogonalEdgeStyle;rounded=0;orthogonalLoop=1;jettySize=auto;html=1;" parent="1" source="eyhPEgxVy8rwkxTOJS7A-15" target="eyhPEgxVy8rwkxTOJS7A-17" edge="1">
          <mxGeometry relative="1" as="geometry" />
        </mxCell>
        <mxCell id="eyhPEgxVy8rwkxTOJS7A-146" style="edgeStyle=orthogonalEdgeStyle;rounded=0;orthogonalLoop=1;jettySize=auto;html=1;exitX=1;exitY=0.5;exitDx=0;exitDy=0;" parent="1" source="eyhPEgxVy8rwkxTOJS7A-15" target="eyhPEgxVy8rwkxTOJS7A-114" edge="1">
          <mxGeometry relative="1" as="geometry" />
        </mxCell>
        <mxCell id="eyhPEgxVy8rwkxTOJS7A-15" value="Manage Employees" style="rhombus;whiteSpace=wrap;html=1;" parent="1" vertex="1">
          <mxGeometry x="217.5" y="800" width="135" height="80" as="geometry" />
        </mxCell>
        <mxCell id="eyhPEgxVy8rwkxTOJS7A-66" style="edgeStyle=orthogonalEdgeStyle;rounded=0;orthogonalLoop=1;jettySize=auto;html=1;exitX=0.5;exitY=1;exitDx=0;exitDy=0;entryX=0.5;entryY=0;entryDx=0;entryDy=0;" parent="1" source="eyhPEgxVy8rwkxTOJS7A-17" target="eyhPEgxVy8rwkxTOJS7A-65" edge="1">
          <mxGeometry relative="1" as="geometry" />
        </mxCell>
        <mxCell id="eyhPEgxVy8rwkxTOJS7A-154" style="edgeStyle=orthogonalEdgeStyle;rounded=0;orthogonalLoop=1;jettySize=auto;html=1;exitX=1;exitY=0.5;exitDx=0;exitDy=0;entryX=0;entryY=0.5;entryDx=0;entryDy=0;" parent="1" source="eyhPEgxVy8rwkxTOJS7A-17" target="eyhPEgxVy8rwkxTOJS7A-153" edge="1">
          <mxGeometry relative="1" as="geometry" />
        </mxCell>
        <mxCell id="eyhPEgxVy8rwkxTOJS7A-17" value="Manage Customers" style="rhombus;whiteSpace=wrap;html=1;" parent="1" vertex="1">
          <mxGeometry x="217.5" y="1140" width="135" height="80" as="geometry" />
        </mxCell>
        <mxCell id="eyhPEgxVy8rwkxTOJS7A-22" style="edgeStyle=orthogonalEdgeStyle;rounded=0;orthogonalLoop=1;jettySize=auto;html=1;exitX=1;exitY=0.5;exitDx=0;exitDy=0;" parent="1" source="eyhPEgxVy8rwkxTOJS7A-21" edge="1">
          <mxGeometry relative="1" as="geometry">
            <mxPoint x="650" y="380.27272727272737" as="targetPoint" />
          </mxGeometry>
        </mxCell>
        <mxCell id="eyhPEgxVy8rwkxTOJS7A-21" value="Check Bookings" style="rounded=1;whiteSpace=wrap;html=1;" parent="1" vertex="1">
          <mxGeometry x="480" y="350" width="120" height="60" as="geometry" />
        </mxCell>
        <mxCell id="eyhPEgxVy8rwkxTOJS7A-26" style="edgeStyle=orthogonalEdgeStyle;rounded=0;orthogonalLoop=1;jettySize=auto;html=1;entryX=0;entryY=0.5;entryDx=0;entryDy=0;" parent="1" source="eyhPEgxVy8rwkxTOJS7A-24" target="eyhPEgxVy8rwkxTOJS7A-25" edge="1">
          <mxGeometry relative="1" as="geometry" />
        </mxCell>
        <mxCell id="eyhPEgxVy8rwkxTOJS7A-28" style="edgeStyle=orthogonalEdgeStyle;rounded=0;orthogonalLoop=1;jettySize=auto;html=1;exitX=0.5;exitY=0;exitDx=0;exitDy=0;entryX=0.5;entryY=1;entryDx=0;entryDy=0;" parent="1" source="eyhPEgxVy8rwkxTOJS7A-24" target="eyhPEgxVy8rwkxTOJS7A-27" edge="1">
          <mxGeometry relative="1" as="geometry" />
        </mxCell>
        <mxCell id="eyhPEgxVy8rwkxTOJS7A-24" value="Past Bookings" style="rhombus;whiteSpace=wrap;html=1;" parent="1" vertex="1">
          <mxGeometry x="650" y="340" width="135" height="80" as="geometry" />
        </mxCell>
        <mxCell id="eyhPEgxVy8rwkxTOJS7A-43" style="edgeStyle=orthogonalEdgeStyle;rounded=0;orthogonalLoop=1;jettySize=auto;html=1;exitX=1;exitY=0.5;exitDx=0;exitDy=0;" parent="1" source="eyhPEgxVy8rwkxTOJS7A-25" target="eyhPEgxVy8rwkxTOJS7A-42" edge="1">
          <mxGeometry relative="1" as="geometry" />
        </mxCell>
        <mxCell id="eyhPEgxVy8rwkxTOJS7A-25" value="Curent Bookings" style="rhombus;whiteSpace=wrap;html=1;" parent="1" vertex="1">
          <mxGeometry x="810" y="340" width="135" height="80" as="geometry" />
        </mxCell>
        <mxCell id="eyhPEgxVy8rwkxTOJS7A-34" style="edgeStyle=orthogonalEdgeStyle;rounded=0;orthogonalLoop=1;jettySize=auto;html=1;exitX=0.5;exitY=0;exitDx=0;exitDy=0;entryX=0.5;entryY=1;entryDx=0;entryDy=0;" parent="1" source="eyhPEgxVy8rwkxTOJS7A-27" target="eyhPEgxVy8rwkxTOJS7A-33" edge="1">
          <mxGeometry relative="1" as="geometry" />
        </mxCell>
        <mxCell id="eyhPEgxVy8rwkxTOJS7A-27" value="View Past Bookings" style="rounded=1;whiteSpace=wrap;html=1;" parent="1" vertex="1">
          <mxGeometry x="657.5" y="240" width="120" height="60" as="geometry" />
        </mxCell>
        <mxCell id="eyhPEgxVy8rwkxTOJS7A-57" style="edgeStyle=orthogonalEdgeStyle;rounded=0;orthogonalLoop=1;jettySize=auto;html=1;exitX=1;exitY=0.5;exitDx=0;exitDy=0;entryX=0;entryY=0.5;entryDx=0;entryDy=0;" parent="1" source="eyhPEgxVy8rwkxTOJS7A-29" target="eyhPEgxVy8rwkxTOJS7A-56" edge="1">
          <mxGeometry relative="1" as="geometry" />
        </mxCell>
        <mxCell id="eyhPEgxVy8rwkxTOJS7A-29" value="Check for bookings from date" style="rounded=1;whiteSpace=wrap;html=1;" parent="1" vertex="1">
          <mxGeometry x="1640" y="210" width="120" height="60" as="geometry" />
        </mxCell>
        <mxCell id="eyhPEgxVy8rwkxTOJS7A-64" style="edgeStyle=orthogonalEdgeStyle;rounded=0;orthogonalLoop=1;jettySize=auto;html=1;exitX=0.25;exitY=1;exitDx=0;exitDy=0;entryX=0;entryY=0.5;entryDx=0;entryDy=0;" parent="1" source="eyhPEgxVy8rwkxTOJS7A-30" target="eyhPEgxVy8rwkxTOJS7A-9" edge="1">
          <mxGeometry relative="1" as="geometry">
            <mxPoint x="410" y="280" as="targetPoint" />
            <Array as="points">
              <mxPoint x="1440" y="410" />
              <mxPoint x="1440" y="450" />
              <mxPoint x="130" y="450" />
              <mxPoint x="130" y="270" />
            </Array>
          </mxGeometry>
        </mxCell>
        <mxCell id="eyhPEgxVy8rwkxTOJS7A-30" value="Display Bookings" style="rounded=1;whiteSpace=wrap;html=1;" parent="1" vertex="1">
          <mxGeometry x="1610" y="350" width="120" height="60" as="geometry" />
        </mxCell>
        <mxCell id="eyhPEgxVy8rwkxTOJS7A-36" style="edgeStyle=orthogonalEdgeStyle;rounded=0;orthogonalLoop=1;jettySize=auto;html=1;exitX=1;exitY=0.5;exitDx=0;exitDy=0;entryX=0;entryY=0.5;entryDx=0;entryDy=0;" parent="1" source="eyhPEgxVy8rwkxTOJS7A-33" target="eyhPEgxVy8rwkxTOJS7A-35" edge="1">
          <mxGeometry relative="1" as="geometry" />
        </mxCell>
        <mxCell id="eyhPEgxVy8rwkxTOJS7A-33" value="Choose Date or time period" style="rounded=1;whiteSpace=wrap;html=1;" parent="1" vertex="1">
          <mxGeometry x="657.5" y="150" width="120" height="60" as="geometry" />
        </mxCell>
        <mxCell id="eyhPEgxVy8rwkxTOJS7A-38" style="edgeStyle=orthogonalEdgeStyle;rounded=0;orthogonalLoop=1;jettySize=auto;html=1;exitX=1;exitY=0.5;exitDx=0;exitDy=0;entryX=0;entryY=0.5;entryDx=0;entryDy=0;" parent="1" source="eyhPEgxVy8rwkxTOJS7A-35" target="eyhPEgxVy8rwkxTOJS7A-37" edge="1">
          <mxGeometry relative="1" as="geometry" />
        </mxCell>
        <mxCell id="eyhPEgxVy8rwkxTOJS7A-45" style="edgeStyle=orthogonalEdgeStyle;rounded=0;orthogonalLoop=1;jettySize=auto;html=1;exitX=0.5;exitY=0;exitDx=0;exitDy=0;" parent="1" source="eyhPEgxVy8rwkxTOJS7A-35" target="eyhPEgxVy8rwkxTOJS7A-41" edge="1">
          <mxGeometry relative="1" as="geometry" />
        </mxCell>
        <mxCell id="eyhPEgxVy8rwkxTOJS7A-35" value="Time period" style="rhombus;whiteSpace=wrap;html=1;" parent="1" vertex="1">
          <mxGeometry x="860" y="140" width="135" height="80" as="geometry" />
        </mxCell>
        <mxCell id="eyhPEgxVy8rwkxTOJS7A-47" style="edgeStyle=orthogonalEdgeStyle;rounded=0;orthogonalLoop=1;jettySize=auto;html=1;entryX=0;entryY=0.5;entryDx=0;entryDy=0;" parent="1" source="eyhPEgxVy8rwkxTOJS7A-37" target="eyhPEgxVy8rwkxTOJS7A-46" edge="1">
          <mxGeometry relative="1" as="geometry" />
        </mxCell>
        <mxCell id="eyhPEgxVy8rwkxTOJS7A-37" value="Date" style="rhombus;whiteSpace=wrap;html=1;" parent="1" vertex="1">
          <mxGeometry x="1030" y="140" width="135" height="80" as="geometry" />
        </mxCell>
        <mxCell id="eyhPEgxVy8rwkxTOJS7A-49" style="edgeStyle=orthogonalEdgeStyle;rounded=0;orthogonalLoop=1;jettySize=auto;html=1;exitX=1;exitY=0.5;exitDx=0;exitDy=0;entryX=0.5;entryY=0;entryDx=0;entryDy=0;" parent="1" source="eyhPEgxVy8rwkxTOJS7A-41" target="eyhPEgxVy8rwkxTOJS7A-62" edge="1">
          <mxGeometry relative="1" as="geometry" />
        </mxCell>
        <mxCell id="eyhPEgxVy8rwkxTOJS7A-41" value="Enter time period" style="rounded=1;whiteSpace=wrap;html=1;" parent="1" vertex="1">
          <mxGeometry x="867.5" y="25" width="120" height="60" as="geometry" />
        </mxCell>
        <mxCell id="eyhPEgxVy8rwkxTOJS7A-44" style="edgeStyle=orthogonalEdgeStyle;rounded=0;orthogonalLoop=1;jettySize=auto;html=1;exitX=1;exitY=0.5;exitDx=0;exitDy=0;entryX=0;entryY=0.5;entryDx=0;entryDy=0;" parent="1" source="eyhPEgxVy8rwkxTOJS7A-42" target="eyhPEgxVy8rwkxTOJS7A-30" edge="1">
          <mxGeometry relative="1" as="geometry" />
        </mxCell>
        <mxCell id="eyhPEgxVy8rwkxTOJS7A-42" value="check todays bookings" style="rounded=1;whiteSpace=wrap;html=1;" parent="1" vertex="1">
          <mxGeometry x="990" y="350" width="120" height="60" as="geometry" />
        </mxCell>
        <mxCell id="eyhPEgxVy8rwkxTOJS7A-48" style="edgeStyle=orthogonalEdgeStyle;rounded=0;orthogonalLoop=1;jettySize=auto;html=1;exitX=1;exitY=0.5;exitDx=0;exitDy=0;entryX=0;entryY=0.5;entryDx=0;entryDy=0;" parent="1" source="eyhPEgxVy8rwkxTOJS7A-46" target="eyhPEgxVy8rwkxTOJS7A-29" edge="1">
          <mxGeometry relative="1" as="geometry">
            <mxPoint x="1440" y="180" as="targetPoint" />
          </mxGeometry>
        </mxCell>
        <mxCell id="eyhPEgxVy8rwkxTOJS7A-46" value="Enter Date" style="rounded=1;whiteSpace=wrap;html=1;" parent="1" vertex="1">
          <mxGeometry x="1190" y="150" width="120" height="60" as="geometry" />
        </mxCell>
        <mxCell id="eyhPEgxVy8rwkxTOJS7A-59" style="edgeStyle=orthogonalEdgeStyle;rounded=0;orthogonalLoop=1;jettySize=auto;html=1;exitX=1;exitY=0.5;exitDx=0;exitDy=0;entryX=0;entryY=0.5;entryDx=0;entryDy=0;" parent="1" source="eyhPEgxVy8rwkxTOJS7A-56" target="eyhPEgxVy8rwkxTOJS7A-58" edge="1">
          <mxGeometry relative="1" as="geometry" />
        </mxCell>
        <mxCell id="eyhPEgxVy8rwkxTOJS7A-61" style="edgeStyle=orthogonalEdgeStyle;rounded=0;orthogonalLoop=1;jettySize=auto;html=1;exitX=0.5;exitY=1;exitDx=0;exitDy=0;entryX=0.5;entryY=0;entryDx=0;entryDy=0;" parent="1" source="eyhPEgxVy8rwkxTOJS7A-56" target="eyhPEgxVy8rwkxTOJS7A-30" edge="1">
          <mxGeometry relative="1" as="geometry" />
        </mxCell>
        <mxCell id="eyhPEgxVy8rwkxTOJS7A-56" value="Generate Report?" style="rhombus;whiteSpace=wrap;html=1;" parent="1" vertex="1">
          <mxGeometry x="1820" y="200" width="135" height="80" as="geometry" />
        </mxCell>
        <mxCell id="eyhPEgxVy8rwkxTOJS7A-60" style="edgeStyle=orthogonalEdgeStyle;rounded=0;orthogonalLoop=1;jettySize=auto;html=1;exitX=0.5;exitY=1;exitDx=0;exitDy=0;entryX=1;entryY=0.5;entryDx=0;entryDy=0;" parent="1" source="eyhPEgxVy8rwkxTOJS7A-58" target="eyhPEgxVy8rwkxTOJS7A-30" edge="1">
          <mxGeometry relative="1" as="geometry" />
        </mxCell>
        <mxCell id="eyhPEgxVy8rwkxTOJS7A-58" value="Generate Report of past bookings" style="rounded=1;whiteSpace=wrap;html=1;" parent="1" vertex="1">
          <mxGeometry x="2000" y="210" width="120" height="60" as="geometry" />
        </mxCell>
        <mxCell id="eyhPEgxVy8rwkxTOJS7A-63" style="edgeStyle=orthogonalEdgeStyle;rounded=0;orthogonalLoop=1;jettySize=auto;html=1;exitX=1;exitY=0.5;exitDx=0;exitDy=0;entryX=0.5;entryY=0;entryDx=0;entryDy=0;" parent="1" source="eyhPEgxVy8rwkxTOJS7A-62" target="eyhPEgxVy8rwkxTOJS7A-56" edge="1">
          <mxGeometry relative="1" as="geometry" />
        </mxCell>
        <mxCell id="eyhPEgxVy8rwkxTOJS7A-62" value="Check for bookings from time period" style="rounded=1;whiteSpace=wrap;html=1;" parent="1" vertex="1">
          <mxGeometry x="1640" y="85" width="120" height="60" as="geometry" />
        </mxCell>
        <mxCell id="eyhPEgxVy8rwkxTOJS7A-67" style="edgeStyle=orthogonalEdgeStyle;rounded=0;orthogonalLoop=1;jettySize=auto;html=1;exitX=0.5;exitY=1;exitDx=0;exitDy=0;entryX=0.5;entryY=0;entryDx=0;entryDy=0;" parent="1" source="eyhPEgxVy8rwkxTOJS7A-65" target="eyhPEgxVy8rwkxTOJS7A-3" edge="1">
          <mxGeometry relative="1" as="geometry" />
        </mxCell>
        <mxCell id="eyhPEgxVy8rwkxTOJS7A-194" style="edgeStyle=orthogonalEdgeStyle;rounded=0;orthogonalLoop=1;jettySize=auto;html=1;exitX=1;exitY=0.5;exitDx=0;exitDy=0;entryX=0;entryY=0.5;entryDx=0;entryDy=0;" parent="1" source="eyhPEgxVy8rwkxTOJS7A-65" target="eyhPEgxVy8rwkxTOJS7A-159" edge="1">
          <mxGeometry relative="1" as="geometry" />
        </mxCell>
        <mxCell id="eyhPEgxVy8rwkxTOJS7A-65" value="Manage CMS" style="rhombus;whiteSpace=wrap;html=1;" parent="1" vertex="1">
          <mxGeometry x="217.5" y="1320" width="135" height="80" as="geometry" />
        </mxCell>
        <mxCell id="eyhPEgxVy8rwkxTOJS7A-71" style="edgeStyle=orthogonalEdgeStyle;rounded=0;orthogonalLoop=1;jettySize=auto;html=1;entryX=0;entryY=0.5;entryDx=0;entryDy=0;" parent="1" source="eyhPEgxVy8rwkxTOJS7A-68" target="eyhPEgxVy8rwkxTOJS7A-70" edge="1">
          <mxGeometry relative="1" as="geometry" />
        </mxCell>
        <mxCell id="eyhPEgxVy8rwkxTOJS7A-68" value="Choose Services Task" style="rounded=1;whiteSpace=wrap;html=1;" parent="1" vertex="1">
          <mxGeometry x="430" y="480" width="120" height="60" as="geometry" />
        </mxCell>
        <mxCell id="eyhPEgxVy8rwkxTOJS7A-75" style="edgeStyle=orthogonalEdgeStyle;rounded=0;orthogonalLoop=1;jettySize=auto;html=1;exitX=1;exitY=0.5;exitDx=0;exitDy=0;entryX=0;entryY=0.5;entryDx=0;entryDy=0;" parent="1" source="eyhPEgxVy8rwkxTOJS7A-70" target="eyhPEgxVy8rwkxTOJS7A-72" edge="1">
          <mxGeometry relative="1" as="geometry" />
        </mxCell>
        <mxCell id="eyhPEgxVy8rwkxTOJS7A-76" style="edgeStyle=orthogonalEdgeStyle;rounded=0;orthogonalLoop=1;jettySize=auto;html=1;exitX=0.5;exitY=1;exitDx=0;exitDy=0;entryX=0.5;entryY=0;entryDx=0;entryDy=0;" parent="1" source="eyhPEgxVy8rwkxTOJS7A-70" target="eyhPEgxVy8rwkxTOJS7A-77" edge="1">
          <mxGeometry relative="1" as="geometry">
            <mxPoint x="657.6666666666667" y="600" as="targetPoint" />
          </mxGeometry>
        </mxCell>
        <mxCell id="eyhPEgxVy8rwkxTOJS7A-70" value="View Services" style="rhombus;whiteSpace=wrap;html=1;" parent="1" vertex="1">
          <mxGeometry x="592.5" y="490" width="135" height="80" as="geometry" />
        </mxCell>
        <mxCell id="eyhPEgxVy8rwkxTOJS7A-80" style="edgeStyle=orthogonalEdgeStyle;rounded=0;orthogonalLoop=1;jettySize=auto;html=1;exitX=1;exitY=0.5;exitDx=0;exitDy=0;entryX=0;entryY=0.5;entryDx=0;entryDy=0;" parent="1" source="eyhPEgxVy8rwkxTOJS7A-72" target="eyhPEgxVy8rwkxTOJS7A-81" edge="1">
          <mxGeometry relative="1" as="geometry">
            <mxPoint x="960" y="530" as="targetPoint" />
          </mxGeometry>
        </mxCell>
        <mxCell id="eyhPEgxVy8rwkxTOJS7A-72" value="Edit Services" style="rhombus;whiteSpace=wrap;html=1;" parent="1" vertex="1">
          <mxGeometry x="777.5" y="490" width="135" height="80" as="geometry" />
        </mxCell>
        <mxCell id="eyhPEgxVy8rwkxTOJS7A-79" style="edgeStyle=orthogonalEdgeStyle;rounded=0;orthogonalLoop=1;jettySize=auto;html=1;exitX=1;exitY=0.5;exitDx=0;exitDy=0;entryX=0;entryY=0.5;entryDx=0;entryDy=0;" parent="1" source="eyhPEgxVy8rwkxTOJS7A-77" target="eyhPEgxVy8rwkxTOJS7A-78" edge="1">
          <mxGeometry relative="1" as="geometry" />
        </mxCell>
        <mxCell id="eyhPEgxVy8rwkxTOJS7A-77" value="View Services" style="rounded=1;whiteSpace=wrap;html=1;" parent="1" vertex="1">
          <mxGeometry x="600" y="670" width="120" height="60" as="geometry" />
        </mxCell>
        <mxCell id="eyhPEgxVy8rwkxTOJS7A-78" value="Display Services" style="rounded=1;whiteSpace=wrap;html=1;" parent="1" vertex="1">
          <mxGeometry x="1610" y="670" width="120" height="60" as="geometry" />
        </mxCell>
        <mxCell id="eyhPEgxVy8rwkxTOJS7A-83" style="edgeStyle=orthogonalEdgeStyle;rounded=0;orthogonalLoop=1;jettySize=auto;html=1;exitX=1;exitY=0.5;exitDx=0;exitDy=0;entryX=0;entryY=0.5;entryDx=0;entryDy=0;" parent="1" source="eyhPEgxVy8rwkxTOJS7A-81" target="eyhPEgxVy8rwkxTOJS7A-82" edge="1">
          <mxGeometry relative="1" as="geometry" />
        </mxCell>
        <mxCell id="eyhPEgxVy8rwkxTOJS7A-81" value="Choose Option" style="rounded=1;whiteSpace=wrap;html=1;" parent="1" vertex="1">
          <mxGeometry x="960" y="500" width="120" height="60" as="geometry" />
        </mxCell>
        <mxCell id="eyhPEgxVy8rwkxTOJS7A-86" value="" style="edgeStyle=orthogonalEdgeStyle;rounded=0;orthogonalLoop=1;jettySize=auto;html=1;" parent="1" source="eyhPEgxVy8rwkxTOJS7A-82" target="eyhPEgxVy8rwkxTOJS7A-85" edge="1">
          <mxGeometry relative="1" as="geometry" />
        </mxCell>
        <mxCell id="eyhPEgxVy8rwkxTOJS7A-92" style="edgeStyle=orthogonalEdgeStyle;rounded=0;orthogonalLoop=1;jettySize=auto;html=1;exitX=0.5;exitY=1;exitDx=0;exitDy=0;entryX=0.5;entryY=0;entryDx=0;entryDy=0;" parent="1" source="eyhPEgxVy8rwkxTOJS7A-82" target="eyhPEgxVy8rwkxTOJS7A-91" edge="1">
          <mxGeometry relative="1" as="geometry" />
        </mxCell>
        <mxCell id="eyhPEgxVy8rwkxTOJS7A-82" value="Update Service" style="rhombus;whiteSpace=wrap;html=1;" parent="1" vertex="1">
          <mxGeometry x="1110" y="490" width="135" height="80" as="geometry" />
        </mxCell>
        <mxCell id="eyhPEgxVy8rwkxTOJS7A-88" value="" style="edgeStyle=orthogonalEdgeStyle;rounded=0;orthogonalLoop=1;jettySize=auto;html=1;" parent="1" source="eyhPEgxVy8rwkxTOJS7A-85" target="eyhPEgxVy8rwkxTOJS7A-87" edge="1">
          <mxGeometry relative="1" as="geometry" />
        </mxCell>
        <mxCell id="eyhPEgxVy8rwkxTOJS7A-95" style="edgeStyle=orthogonalEdgeStyle;rounded=0;orthogonalLoop=1;jettySize=auto;html=1;exitX=0.5;exitY=1;exitDx=0;exitDy=0;entryX=0.5;entryY=0;entryDx=0;entryDy=0;" parent="1" source="eyhPEgxVy8rwkxTOJS7A-85" target="eyhPEgxVy8rwkxTOJS7A-93" edge="1">
          <mxGeometry relative="1" as="geometry" />
        </mxCell>
        <mxCell id="eyhPEgxVy8rwkxTOJS7A-85" value="Add Service" style="rhombus;whiteSpace=wrap;html=1;" parent="1" vertex="1">
          <mxGeometry x="1267.5" y="490" width="135" height="80" as="geometry" />
        </mxCell>
        <mxCell id="eyhPEgxVy8rwkxTOJS7A-96" style="edgeStyle=orthogonalEdgeStyle;rounded=0;orthogonalLoop=1;jettySize=auto;html=1;exitX=0.5;exitY=1;exitDx=0;exitDy=0;entryX=0.5;entryY=0;entryDx=0;entryDy=0;" parent="1" source="eyhPEgxVy8rwkxTOJS7A-87" target="eyhPEgxVy8rwkxTOJS7A-94" edge="1">
          <mxGeometry relative="1" as="geometry" />
        </mxCell>
        <mxCell id="eyhPEgxVy8rwkxTOJS7A-101" style="edgeStyle=orthogonalEdgeStyle;rounded=0;orthogonalLoop=1;jettySize=auto;html=1;exitX=1;exitY=0.5;exitDx=0;exitDy=0;entryX=0;entryY=0.5;entryDx=0;entryDy=0;" parent="1" source="eyhPEgxVy8rwkxTOJS7A-87" target="eyhPEgxVy8rwkxTOJS7A-100" edge="1">
          <mxGeometry relative="1" as="geometry" />
        </mxCell>
        <mxCell id="eyhPEgxVy8rwkxTOJS7A-87" value="Delete Service" style="rhombus;whiteSpace=wrap;html=1;" parent="1" vertex="1">
          <mxGeometry x="1420" y="490" width="135" height="80" as="geometry" />
        </mxCell>
        <mxCell id="eyhPEgxVy8rwkxTOJS7A-97" style="edgeStyle=orthogonalEdgeStyle;rounded=0;orthogonalLoop=1;jettySize=auto;html=1;entryX=0.5;entryY=1;entryDx=0;entryDy=0;" parent="1" source="eyhPEgxVy8rwkxTOJS7A-91" target="eyhPEgxVy8rwkxTOJS7A-81" edge="1">
          <mxGeometry relative="1" as="geometry" />
        </mxCell>
        <mxCell id="eyhPEgxVy8rwkxTOJS7A-91" value="Update Service" style="rounded=1;whiteSpace=wrap;html=1;" parent="1" vertex="1">
          <mxGeometry x="1117.5" y="600" width="120" height="60" as="geometry" />
        </mxCell>
        <mxCell id="eyhPEgxVy8rwkxTOJS7A-98" style="edgeStyle=orthogonalEdgeStyle;rounded=0;orthogonalLoop=1;jettySize=auto;html=1;exitX=0.5;exitY=1;exitDx=0;exitDy=0;" parent="1" source="eyhPEgxVy8rwkxTOJS7A-93" edge="1">
          <mxGeometry relative="1" as="geometry">
            <mxPoint x="1020" y="560" as="targetPoint" />
          </mxGeometry>
        </mxCell>
        <mxCell id="eyhPEgxVy8rwkxTOJS7A-93" value="Add new service" style="rounded=1;whiteSpace=wrap;html=1;" parent="1" vertex="1">
          <mxGeometry x="1275" y="600" width="120" height="60" as="geometry" />
        </mxCell>
        <mxCell id="eyhPEgxVy8rwkxTOJS7A-99" style="edgeStyle=orthogonalEdgeStyle;rounded=0;orthogonalLoop=1;jettySize=auto;html=1;exitX=0.5;exitY=1;exitDx=0;exitDy=0;" parent="1" source="eyhPEgxVy8rwkxTOJS7A-94" edge="1">
          <mxGeometry relative="1" as="geometry">
            <mxPoint x="1020" y="560" as="targetPoint" />
          </mxGeometry>
        </mxCell>
        <mxCell id="eyhPEgxVy8rwkxTOJS7A-94" value="Delete Old service" style="rounded=1;whiteSpace=wrap;html=1;" parent="1" vertex="1">
          <mxGeometry x="1427.5" y="600" width="120" height="60" as="geometry" />
        </mxCell>
        <mxCell id="eyhPEgxVy8rwkxTOJS7A-103" style="edgeStyle=orthogonalEdgeStyle;rounded=0;orthogonalLoop=1;jettySize=auto;html=1;exitX=1;exitY=0.5;exitDx=0;exitDy=0;entryX=0;entryY=0.5;entryDx=0;entryDy=0;" parent="1" source="eyhPEgxVy8rwkxTOJS7A-100" target="eyhPEgxVy8rwkxTOJS7A-102" edge="1">
          <mxGeometry relative="1" as="geometry" />
        </mxCell>
        <mxCell id="eyhPEgxVy8rwkxTOJS7A-100" value="Check For Changes&amp;nbsp;" style="rounded=1;whiteSpace=wrap;html=1;" parent="1" vertex="1">
          <mxGeometry x="1610" y="500" width="120" height="60" as="geometry" />
        </mxCell>
        <mxCell id="eyhPEgxVy8rwkxTOJS7A-105" style="edgeStyle=orthogonalEdgeStyle;rounded=0;orthogonalLoop=1;jettySize=auto;html=1;exitX=1;exitY=0.5;exitDx=0;exitDy=0;entryX=0;entryY=0.5;entryDx=0;entryDy=0;" parent="1" source="eyhPEgxVy8rwkxTOJS7A-102" target="eyhPEgxVy8rwkxTOJS7A-104" edge="1">
          <mxGeometry relative="1" as="geometry" />
        </mxCell>
        <mxCell id="eyhPEgxVy8rwkxTOJS7A-109" style="edgeStyle=orthogonalEdgeStyle;rounded=0;orthogonalLoop=1;jettySize=auto;html=1;entryX=0;entryY=0.5;entryDx=0;entryDy=0;exitX=0.5;exitY=0;exitDx=0;exitDy=0;" parent="1" source="eyhPEgxVy8rwkxTOJS7A-102" target="eyhPEgxVy8rwkxTOJS7A-9" edge="1">
          <mxGeometry relative="1" as="geometry">
            <mxPoint x="1850" y="480" as="sourcePoint" />
            <mxPoint x="380" y="270" as="targetPoint" />
            <Array as="points">
              <mxPoint x="1853" y="480" />
              <mxPoint x="1860" y="480" />
              <mxPoint x="1860" y="450" />
              <mxPoint x="130" y="450" />
              <mxPoint x="130" y="270" />
            </Array>
          </mxGeometry>
        </mxCell>
        <mxCell id="eyhPEgxVy8rwkxTOJS7A-102" value="Found Changes" style="rhombus;whiteSpace=wrap;html=1;" parent="1" vertex="1">
          <mxGeometry x="1785" y="490" width="135" height="80" as="geometry" />
        </mxCell>
        <mxCell id="eyhPEgxVy8rwkxTOJS7A-108" value="" style="edgeStyle=orthogonalEdgeStyle;rounded=0;orthogonalLoop=1;jettySize=auto;html=1;" parent="1" source="eyhPEgxVy8rwkxTOJS7A-104" target="eyhPEgxVy8rwkxTOJS7A-107" edge="1">
          <mxGeometry relative="1" as="geometry" />
        </mxCell>
        <mxCell id="eyhPEgxVy8rwkxTOJS7A-104" value="Save Changes" style="rounded=1;whiteSpace=wrap;html=1;" parent="1" vertex="1">
          <mxGeometry x="1960" y="500" width="120" height="60" as="geometry" />
        </mxCell>
        <mxCell id="eyhPEgxVy8rwkxTOJS7A-110" style="edgeStyle=orthogonalEdgeStyle;rounded=0;orthogonalLoop=1;jettySize=auto;html=1;exitX=0.5;exitY=0;exitDx=0;exitDy=0;entryX=0;entryY=0.5;entryDx=0;entryDy=0;" parent="1" source="eyhPEgxVy8rwkxTOJS7A-107" target="eyhPEgxVy8rwkxTOJS7A-9" edge="1">
          <mxGeometry relative="1" as="geometry">
            <mxPoint x="470" y="210" as="targetPoint" />
            <Array as="points">
              <mxPoint x="2220" y="450" />
              <mxPoint x="130" y="450" />
              <mxPoint x="130" y="270" />
            </Array>
          </mxGeometry>
        </mxCell>
        <mxCell id="eyhPEgxVy8rwkxTOJS7A-107" value="Update Changes" style="rounded=1;whiteSpace=wrap;html=1;" parent="1" vertex="1">
          <mxGeometry x="2160" y="500" width="120" height="60" as="geometry" />
        </mxCell>
        <mxCell id="eyhPEgxVy8rwkxTOJS7A-113" style="edgeStyle=orthogonalEdgeStyle;rounded=0;orthogonalLoop=1;jettySize=auto;html=1;entryX=0;entryY=0.5;entryDx=0;entryDy=0;" parent="1" source="eyhPEgxVy8rwkxTOJS7A-114" target="eyhPEgxVy8rwkxTOJS7A-117" edge="1">
          <mxGeometry relative="1" as="geometry" />
        </mxCell>
        <mxCell id="eyhPEgxVy8rwkxTOJS7A-114" value="Choose Employee Task" style="rounded=1;whiteSpace=wrap;html=1;" parent="1" vertex="1">
          <mxGeometry x="410" y="810" width="120" height="60" as="geometry" />
        </mxCell>
        <mxCell id="eyhPEgxVy8rwkxTOJS7A-115" style="edgeStyle=orthogonalEdgeStyle;rounded=0;orthogonalLoop=1;jettySize=auto;html=1;exitX=1;exitY=0.5;exitDx=0;exitDy=0;entryX=0;entryY=0.5;entryDx=0;entryDy=0;" parent="1" source="eyhPEgxVy8rwkxTOJS7A-117" target="eyhPEgxVy8rwkxTOJS7A-119" edge="1">
          <mxGeometry relative="1" as="geometry" />
        </mxCell>
        <mxCell id="eyhPEgxVy8rwkxTOJS7A-116" style="edgeStyle=orthogonalEdgeStyle;rounded=0;orthogonalLoop=1;jettySize=auto;html=1;exitX=0.5;exitY=1;exitDx=0;exitDy=0;entryX=0.5;entryY=0;entryDx=0;entryDy=0;" parent="1" source="eyhPEgxVy8rwkxTOJS7A-117" target="eyhPEgxVy8rwkxTOJS7A-121" edge="1">
          <mxGeometry relative="1" as="geometry">
            <mxPoint x="637.6666666666667" y="930" as="targetPoint" />
          </mxGeometry>
        </mxCell>
        <mxCell id="eyhPEgxVy8rwkxTOJS7A-117" value="View Employee" style="rhombus;whiteSpace=wrap;html=1;" parent="1" vertex="1">
          <mxGeometry x="572.5" y="820" width="135" height="80" as="geometry" />
        </mxCell>
        <mxCell id="eyhPEgxVy8rwkxTOJS7A-118" style="edgeStyle=orthogonalEdgeStyle;rounded=0;orthogonalLoop=1;jettySize=auto;html=1;exitX=1;exitY=0.5;exitDx=0;exitDy=0;entryX=0;entryY=0.5;entryDx=0;entryDy=0;" parent="1" source="eyhPEgxVy8rwkxTOJS7A-119" target="eyhPEgxVy8rwkxTOJS7A-124" edge="1">
          <mxGeometry relative="1" as="geometry">
            <mxPoint x="940" y="860" as="targetPoint" />
          </mxGeometry>
        </mxCell>
        <mxCell id="eyhPEgxVy8rwkxTOJS7A-119" value="Edit Employees" style="rhombus;whiteSpace=wrap;html=1;" parent="1" vertex="1">
          <mxGeometry x="757.5" y="820" width="135" height="80" as="geometry" />
        </mxCell>
        <mxCell id="eyhPEgxVy8rwkxTOJS7A-120" style="edgeStyle=orthogonalEdgeStyle;rounded=0;orthogonalLoop=1;jettySize=auto;html=1;exitX=1;exitY=0.5;exitDx=0;exitDy=0;entryX=0;entryY=0.5;entryDx=0;entryDy=0;" parent="1" source="eyhPEgxVy8rwkxTOJS7A-121" target="eyhPEgxVy8rwkxTOJS7A-122" edge="1">
          <mxGeometry relative="1" as="geometry" />
        </mxCell>
        <mxCell id="eyhPEgxVy8rwkxTOJS7A-121" value="View Employee list" style="rounded=1;whiteSpace=wrap;html=1;" parent="1" vertex="1">
          <mxGeometry x="580" y="1000" width="120" height="60" as="geometry" />
        </mxCell>
        <mxCell id="eyhPEgxVy8rwkxTOJS7A-149" value="" style="edgeStyle=orthogonalEdgeStyle;rounded=0;orthogonalLoop=1;jettySize=auto;html=1;" parent="1" source="eyhPEgxVy8rwkxTOJS7A-122" target="eyhPEgxVy8rwkxTOJS7A-148" edge="1">
          <mxGeometry relative="1" as="geometry" />
        </mxCell>
        <mxCell id="eyhPEgxVy8rwkxTOJS7A-122" value="check employees" style="rounded=1;whiteSpace=wrap;html=1;" parent="1" vertex="1">
          <mxGeometry x="1610" y="1000" width="120" height="60" as="geometry" />
        </mxCell>
        <mxCell id="eyhPEgxVy8rwkxTOJS7A-123" style="edgeStyle=orthogonalEdgeStyle;rounded=0;orthogonalLoop=1;jettySize=auto;html=1;exitX=1;exitY=0.5;exitDx=0;exitDy=0;entryX=0;entryY=0.5;entryDx=0;entryDy=0;" parent="1" source="eyhPEgxVy8rwkxTOJS7A-124" target="eyhPEgxVy8rwkxTOJS7A-127" edge="1">
          <mxGeometry relative="1" as="geometry" />
        </mxCell>
        <mxCell id="eyhPEgxVy8rwkxTOJS7A-124" value="Choose Option" style="rounded=1;whiteSpace=wrap;html=1;" parent="1" vertex="1">
          <mxGeometry x="940" y="830" width="120" height="60" as="geometry" />
        </mxCell>
        <mxCell id="eyhPEgxVy8rwkxTOJS7A-125" value="" style="edgeStyle=orthogonalEdgeStyle;rounded=0;orthogonalLoop=1;jettySize=auto;html=1;" parent="1" source="eyhPEgxVy8rwkxTOJS7A-127" target="eyhPEgxVy8rwkxTOJS7A-130" edge="1">
          <mxGeometry relative="1" as="geometry" />
        </mxCell>
        <mxCell id="eyhPEgxVy8rwkxTOJS7A-126" style="edgeStyle=orthogonalEdgeStyle;rounded=0;orthogonalLoop=1;jettySize=auto;html=1;exitX=0.5;exitY=1;exitDx=0;exitDy=0;entryX=0.5;entryY=0;entryDx=0;entryDy=0;" parent="1" source="eyhPEgxVy8rwkxTOJS7A-127" target="eyhPEgxVy8rwkxTOJS7A-135" edge="1">
          <mxGeometry relative="1" as="geometry" />
        </mxCell>
        <mxCell id="eyhPEgxVy8rwkxTOJS7A-127" value="Update Employee" style="rhombus;whiteSpace=wrap;html=1;" parent="1" vertex="1">
          <mxGeometry x="1090" y="820" width="135" height="80" as="geometry" />
        </mxCell>
        <mxCell id="eyhPEgxVy8rwkxTOJS7A-128" value="" style="edgeStyle=orthogonalEdgeStyle;rounded=0;orthogonalLoop=1;jettySize=auto;html=1;" parent="1" source="eyhPEgxVy8rwkxTOJS7A-130" target="eyhPEgxVy8rwkxTOJS7A-133" edge="1">
          <mxGeometry relative="1" as="geometry" />
        </mxCell>
        <mxCell id="eyhPEgxVy8rwkxTOJS7A-129" style="edgeStyle=orthogonalEdgeStyle;rounded=0;orthogonalLoop=1;jettySize=auto;html=1;exitX=0.5;exitY=1;exitDx=0;exitDy=0;entryX=0.5;entryY=0;entryDx=0;entryDy=0;" parent="1" source="eyhPEgxVy8rwkxTOJS7A-130" target="eyhPEgxVy8rwkxTOJS7A-137" edge="1">
          <mxGeometry relative="1" as="geometry" />
        </mxCell>
        <mxCell id="eyhPEgxVy8rwkxTOJS7A-130" value="Add Employee" style="rhombus;whiteSpace=wrap;html=1;" parent="1" vertex="1">
          <mxGeometry x="1247.5" y="820" width="135" height="80" as="geometry" />
        </mxCell>
        <mxCell id="eyhPEgxVy8rwkxTOJS7A-131" style="edgeStyle=orthogonalEdgeStyle;rounded=0;orthogonalLoop=1;jettySize=auto;html=1;exitX=0.5;exitY=1;exitDx=0;exitDy=0;entryX=0.5;entryY=0;entryDx=0;entryDy=0;" parent="1" source="eyhPEgxVy8rwkxTOJS7A-133" target="eyhPEgxVy8rwkxTOJS7A-139" edge="1">
          <mxGeometry relative="1" as="geometry" />
        </mxCell>
        <mxCell id="eyhPEgxVy8rwkxTOJS7A-132" style="edgeStyle=orthogonalEdgeStyle;rounded=0;orthogonalLoop=1;jettySize=auto;html=1;exitX=1;exitY=0.5;exitDx=0;exitDy=0;entryX=0;entryY=0.5;entryDx=0;entryDy=0;" parent="1" source="eyhPEgxVy8rwkxTOJS7A-133" target="eyhPEgxVy8rwkxTOJS7A-141" edge="1">
          <mxGeometry relative="1" as="geometry" />
        </mxCell>
        <mxCell id="eyhPEgxVy8rwkxTOJS7A-133" value="Delete Employee" style="rhombus;whiteSpace=wrap;html=1;" parent="1" vertex="1">
          <mxGeometry x="1400" y="820" width="135" height="80" as="geometry" />
        </mxCell>
        <mxCell id="eyhPEgxVy8rwkxTOJS7A-134" style="edgeStyle=orthogonalEdgeStyle;rounded=0;orthogonalLoop=1;jettySize=auto;html=1;entryX=0.5;entryY=1;entryDx=0;entryDy=0;" parent="1" source="eyhPEgxVy8rwkxTOJS7A-135" target="eyhPEgxVy8rwkxTOJS7A-124" edge="1">
          <mxGeometry relative="1" as="geometry" />
        </mxCell>
        <mxCell id="eyhPEgxVy8rwkxTOJS7A-135" value="Update Employee" style="rounded=1;whiteSpace=wrap;html=1;" parent="1" vertex="1">
          <mxGeometry x="1097.5" y="930" width="120" height="60" as="geometry" />
        </mxCell>
        <mxCell id="eyhPEgxVy8rwkxTOJS7A-136" style="edgeStyle=orthogonalEdgeStyle;rounded=0;orthogonalLoop=1;jettySize=auto;html=1;exitX=0.5;exitY=1;exitDx=0;exitDy=0;" parent="1" source="eyhPEgxVy8rwkxTOJS7A-137" edge="1">
          <mxGeometry relative="1" as="geometry">
            <mxPoint x="1000" y="890" as="targetPoint" />
          </mxGeometry>
        </mxCell>
        <mxCell id="eyhPEgxVy8rwkxTOJS7A-137" value="Add new Employee" style="rounded=1;whiteSpace=wrap;html=1;" parent="1" vertex="1">
          <mxGeometry x="1255" y="930" width="120" height="60" as="geometry" />
        </mxCell>
        <mxCell id="eyhPEgxVy8rwkxTOJS7A-138" style="edgeStyle=orthogonalEdgeStyle;rounded=0;orthogonalLoop=1;jettySize=auto;html=1;exitX=0.5;exitY=1;exitDx=0;exitDy=0;" parent="1" source="eyhPEgxVy8rwkxTOJS7A-139" edge="1">
          <mxGeometry relative="1" as="geometry">
            <mxPoint x="1000" y="890" as="targetPoint" />
          </mxGeometry>
        </mxCell>
        <mxCell id="eyhPEgxVy8rwkxTOJS7A-139" value="Delete Employee" style="rounded=1;whiteSpace=wrap;html=1;" parent="1" vertex="1">
          <mxGeometry x="1407.5" y="930" width="120" height="60" as="geometry" />
        </mxCell>
        <mxCell id="eyhPEgxVy8rwkxTOJS7A-140" style="edgeStyle=orthogonalEdgeStyle;rounded=0;orthogonalLoop=1;jettySize=auto;html=1;exitX=1;exitY=0.5;exitDx=0;exitDy=0;entryX=0;entryY=0.5;entryDx=0;entryDy=0;" parent="1" source="eyhPEgxVy8rwkxTOJS7A-141" target="eyhPEgxVy8rwkxTOJS7A-143" edge="1">
          <mxGeometry relative="1" as="geometry" />
        </mxCell>
        <mxCell id="eyhPEgxVy8rwkxTOJS7A-141" value="Check For Changes&amp;nbsp;" style="rounded=1;whiteSpace=wrap;html=1;" parent="1" vertex="1">
          <mxGeometry x="1590" y="830" width="120" height="60" as="geometry" />
        </mxCell>
        <mxCell id="eyhPEgxVy8rwkxTOJS7A-142" style="edgeStyle=orthogonalEdgeStyle;rounded=0;orthogonalLoop=1;jettySize=auto;html=1;exitX=1;exitY=0.5;exitDx=0;exitDy=0;entryX=0;entryY=0.5;entryDx=0;entryDy=0;" parent="1" source="eyhPEgxVy8rwkxTOJS7A-143" target="eyhPEgxVy8rwkxTOJS7A-145" edge="1">
          <mxGeometry relative="1" as="geometry" />
        </mxCell>
        <mxCell id="eyhPEgxVy8rwkxTOJS7A-151" style="edgeStyle=orthogonalEdgeStyle;rounded=0;orthogonalLoop=1;jettySize=auto;html=1;entryX=0.546;entryY=-0.003;entryDx=0;entryDy=0;entryPerimeter=0;" parent="1" source="eyhPEgxVy8rwkxTOJS7A-143" target="eyhPEgxVy8rwkxTOJS7A-148" edge="1">
          <mxGeometry relative="1" as="geometry" />
        </mxCell>
        <mxCell id="eyhPEgxVy8rwkxTOJS7A-143" value="Found Changes" style="rhombus;whiteSpace=wrap;html=1;" parent="1" vertex="1">
          <mxGeometry x="1765" y="820" width="135" height="80" as="geometry" />
        </mxCell>
        <mxCell id="eyhPEgxVy8rwkxTOJS7A-150" style="edgeStyle=orthogonalEdgeStyle;rounded=0;orthogonalLoop=1;jettySize=auto;html=1;entryX=1;entryY=0.5;entryDx=0;entryDy=0;" parent="1" source="eyhPEgxVy8rwkxTOJS7A-145" target="eyhPEgxVy8rwkxTOJS7A-148" edge="1">
          <mxGeometry relative="1" as="geometry">
            <Array as="points">
              <mxPoint x="2000" y="1030" />
            </Array>
          </mxGeometry>
        </mxCell>
        <mxCell id="eyhPEgxVy8rwkxTOJS7A-145" value="Save Changes" style="rounded=1;whiteSpace=wrap;html=1;" parent="1" vertex="1">
          <mxGeometry x="1940" y="830" width="120" height="60" as="geometry" />
        </mxCell>
        <mxCell id="eyhPEgxVy8rwkxTOJS7A-152" style="edgeStyle=orthogonalEdgeStyle;rounded=0;orthogonalLoop=1;jettySize=auto;html=1;entryX=0;entryY=0.5;entryDx=0;entryDy=0;" parent="1" source="eyhPEgxVy8rwkxTOJS7A-148" target="eyhPEgxVy8rwkxTOJS7A-9" edge="1">
          <mxGeometry relative="1" as="geometry">
            <Array as="points">
              <mxPoint x="1870" y="1090" />
              <mxPoint x="130" y="1090" />
              <mxPoint x="130" y="270" />
            </Array>
          </mxGeometry>
        </mxCell>
        <mxCell id="eyhPEgxVy8rwkxTOJS7A-148" value="Display Employee List" style="rounded=1;whiteSpace=wrap;html=1;" parent="1" vertex="1">
          <mxGeometry x="1810" y="1000" width="120" height="60" as="geometry" />
        </mxCell>
        <mxCell id="eyhPEgxVy8rwkxTOJS7A-157" style="edgeStyle=orthogonalEdgeStyle;rounded=0;orthogonalLoop=1;jettySize=auto;html=1;exitX=1;exitY=0.5;exitDx=0;exitDy=0;entryX=0.011;entryY=0.652;entryDx=0;entryDy=0;entryPerimeter=0;" parent="1" source="eyhPEgxVy8rwkxTOJS7A-153" target="eyhPEgxVy8rwkxTOJS7A-155" edge="1">
          <mxGeometry relative="1" as="geometry" />
        </mxCell>
        <mxCell id="eyhPEgxVy8rwkxTOJS7A-153" value="View Customer List" style="rounded=1;whiteSpace=wrap;html=1;" parent="1" vertex="1">
          <mxGeometry x="537.5" y="1150" width="120" height="60" as="geometry" />
        </mxCell>
        <mxCell id="eyhPEgxVy8rwkxTOJS7A-195" style="edgeStyle=orthogonalEdgeStyle;rounded=0;orthogonalLoop=1;jettySize=auto;html=1;exitX=0.5;exitY=0;exitDx=0;exitDy=0;entryX=0;entryY=0.5;entryDx=0;entryDy=0;" parent="1" source="eyhPEgxVy8rwkxTOJS7A-155" target="eyhPEgxVy8rwkxTOJS7A-9" edge="1">
          <mxGeometry relative="1" as="geometry">
            <Array as="points">
              <mxPoint x="1670" y="1110" />
              <mxPoint x="130" y="1110" />
              <mxPoint x="130" y="270" />
            </Array>
          </mxGeometry>
        </mxCell>
        <mxCell id="eyhPEgxVy8rwkxTOJS7A-155" value="Display Employee List" style="rounded=1;whiteSpace=wrap;html=1;" parent="1" vertex="1">
          <mxGeometry x="1610" y="1140" width="120" height="60" as="geometry" />
        </mxCell>
        <mxCell id="eyhPEgxVy8rwkxTOJS7A-158" style="edgeStyle=orthogonalEdgeStyle;rounded=0;orthogonalLoop=1;jettySize=auto;html=1;entryX=0;entryY=0.5;entryDx=0;entryDy=0;" parent="1" source="eyhPEgxVy8rwkxTOJS7A-159" target="eyhPEgxVy8rwkxTOJS7A-162" edge="1">
          <mxGeometry relative="1" as="geometry" />
        </mxCell>
        <mxCell id="eyhPEgxVy8rwkxTOJS7A-159" value="Choose CMS Task" style="rounded=1;whiteSpace=wrap;html=1;" parent="1" vertex="1">
          <mxGeometry x="380" y="1330" width="120" height="60" as="geometry" />
        </mxCell>
        <mxCell id="eyhPEgxVy8rwkxTOJS7A-160" style="edgeStyle=orthogonalEdgeStyle;rounded=0;orthogonalLoop=1;jettySize=auto;html=1;exitX=1;exitY=0.5;exitDx=0;exitDy=0;entryX=0;entryY=0.5;entryDx=0;entryDy=0;" parent="1" source="eyhPEgxVy8rwkxTOJS7A-162" target="eyhPEgxVy8rwkxTOJS7A-164" edge="1">
          <mxGeometry relative="1" as="geometry" />
        </mxCell>
        <mxCell id="eyhPEgxVy8rwkxTOJS7A-161" style="edgeStyle=orthogonalEdgeStyle;rounded=0;orthogonalLoop=1;jettySize=auto;html=1;exitX=0.5;exitY=1;exitDx=0;exitDy=0;entryX=0.5;entryY=0;entryDx=0;entryDy=0;" parent="1" source="eyhPEgxVy8rwkxTOJS7A-162" target="eyhPEgxVy8rwkxTOJS7A-166" edge="1">
          <mxGeometry relative="1" as="geometry">
            <mxPoint x="607.6666666666667" y="1450" as="targetPoint" />
          </mxGeometry>
        </mxCell>
        <mxCell id="eyhPEgxVy8rwkxTOJS7A-162" value="View Content" style="rhombus;whiteSpace=wrap;html=1;" parent="1" vertex="1">
          <mxGeometry x="542.5" y="1340" width="135" height="80" as="geometry" />
        </mxCell>
        <mxCell id="eyhPEgxVy8rwkxTOJS7A-163" style="edgeStyle=orthogonalEdgeStyle;rounded=0;orthogonalLoop=1;jettySize=auto;html=1;exitX=1;exitY=0.5;exitDx=0;exitDy=0;entryX=0;entryY=0.5;entryDx=0;entryDy=0;" parent="1" source="eyhPEgxVy8rwkxTOJS7A-164" target="eyhPEgxVy8rwkxTOJS7A-170" edge="1">
          <mxGeometry relative="1" as="geometry">
            <mxPoint x="910" y="1380" as="targetPoint" />
          </mxGeometry>
        </mxCell>
        <mxCell id="eyhPEgxVy8rwkxTOJS7A-164" value="Edit CMS" style="rhombus;whiteSpace=wrap;html=1;" parent="1" vertex="1">
          <mxGeometry x="727.5" y="1340" width="135" height="80" as="geometry" />
        </mxCell>
        <mxCell id="eyhPEgxVy8rwkxTOJS7A-165" style="edgeStyle=orthogonalEdgeStyle;rounded=0;orthogonalLoop=1;jettySize=auto;html=1;exitX=1;exitY=0.5;exitDx=0;exitDy=0;entryX=0;entryY=0.5;entryDx=0;entryDy=0;" parent="1" source="eyhPEgxVy8rwkxTOJS7A-166" target="eyhPEgxVy8rwkxTOJS7A-168" edge="1">
          <mxGeometry relative="1" as="geometry" />
        </mxCell>
        <mxCell id="eyhPEgxVy8rwkxTOJS7A-166" value="View Current" style="rounded=1;whiteSpace=wrap;html=1;" parent="1" vertex="1">
          <mxGeometry x="550" y="1520" width="120" height="60" as="geometry" />
        </mxCell>
        <mxCell id="eyhPEgxVy8rwkxTOJS7A-167" value="" style="edgeStyle=orthogonalEdgeStyle;rounded=0;orthogonalLoop=1;jettySize=auto;html=1;" parent="1" source="eyhPEgxVy8rwkxTOJS7A-168" target="eyhPEgxVy8rwkxTOJS7A-193" edge="1">
          <mxGeometry relative="1" as="geometry" />
        </mxCell>
        <mxCell id="eyhPEgxVy8rwkxTOJS7A-168" value="check CMS Content" style="rounded=1;whiteSpace=wrap;html=1;" parent="1" vertex="1">
          <mxGeometry x="1600" y="1520" width="120" height="60" as="geometry" />
        </mxCell>
        <mxCell id="eyhPEgxVy8rwkxTOJS7A-169" style="edgeStyle=orthogonalEdgeStyle;rounded=0;orthogonalLoop=1;jettySize=auto;html=1;exitX=1;exitY=0.5;exitDx=0;exitDy=0;entryX=0;entryY=0.5;entryDx=0;entryDy=0;" parent="1" source="eyhPEgxVy8rwkxTOJS7A-170" target="eyhPEgxVy8rwkxTOJS7A-173" edge="1">
          <mxGeometry relative="1" as="geometry" />
        </mxCell>
        <mxCell id="eyhPEgxVy8rwkxTOJS7A-170" value="Choose Option" style="rounded=1;whiteSpace=wrap;html=1;" parent="1" vertex="1">
          <mxGeometry x="910" y="1350" width="120" height="60" as="geometry" />
        </mxCell>
        <mxCell id="eyhPEgxVy8rwkxTOJS7A-171" value="" style="edgeStyle=orthogonalEdgeStyle;rounded=0;orthogonalLoop=1;jettySize=auto;html=1;" parent="1" source="eyhPEgxVy8rwkxTOJS7A-173" target="eyhPEgxVy8rwkxTOJS7A-176" edge="1">
          <mxGeometry relative="1" as="geometry" />
        </mxCell>
        <mxCell id="eyhPEgxVy8rwkxTOJS7A-172" style="edgeStyle=orthogonalEdgeStyle;rounded=0;orthogonalLoop=1;jettySize=auto;html=1;exitX=0.5;exitY=1;exitDx=0;exitDy=0;entryX=0.5;entryY=0;entryDx=0;entryDy=0;" parent="1" source="eyhPEgxVy8rwkxTOJS7A-173" target="eyhPEgxVy8rwkxTOJS7A-181" edge="1">
          <mxGeometry relative="1" as="geometry" />
        </mxCell>
        <mxCell id="eyhPEgxVy8rwkxTOJS7A-173" value="Update CMS" style="rhombus;whiteSpace=wrap;html=1;" parent="1" vertex="1">
          <mxGeometry x="1060" y="1340" width="135" height="80" as="geometry" />
        </mxCell>
        <mxCell id="eyhPEgxVy8rwkxTOJS7A-174" value="" style="edgeStyle=orthogonalEdgeStyle;rounded=0;orthogonalLoop=1;jettySize=auto;html=1;" parent="1" source="eyhPEgxVy8rwkxTOJS7A-176" target="eyhPEgxVy8rwkxTOJS7A-179" edge="1">
          <mxGeometry relative="1" as="geometry" />
        </mxCell>
        <mxCell id="eyhPEgxVy8rwkxTOJS7A-175" style="edgeStyle=orthogonalEdgeStyle;rounded=0;orthogonalLoop=1;jettySize=auto;html=1;exitX=0.5;exitY=1;exitDx=0;exitDy=0;entryX=0.5;entryY=0;entryDx=0;entryDy=0;" parent="1" source="eyhPEgxVy8rwkxTOJS7A-176" target="eyhPEgxVy8rwkxTOJS7A-183" edge="1">
          <mxGeometry relative="1" as="geometry" />
        </mxCell>
        <mxCell id="eyhPEgxVy8rwkxTOJS7A-176" value="Add CMS" style="rhombus;whiteSpace=wrap;html=1;" parent="1" vertex="1">
          <mxGeometry x="1217.5" y="1340" width="135" height="80" as="geometry" />
        </mxCell>
        <mxCell id="eyhPEgxVy8rwkxTOJS7A-177" style="edgeStyle=orthogonalEdgeStyle;rounded=0;orthogonalLoop=1;jettySize=auto;html=1;exitX=0.5;exitY=1;exitDx=0;exitDy=0;entryX=0.5;entryY=0;entryDx=0;entryDy=0;" parent="1" source="eyhPEgxVy8rwkxTOJS7A-179" target="eyhPEgxVy8rwkxTOJS7A-185" edge="1">
          <mxGeometry relative="1" as="geometry" />
        </mxCell>
        <mxCell id="eyhPEgxVy8rwkxTOJS7A-178" style="edgeStyle=orthogonalEdgeStyle;rounded=0;orthogonalLoop=1;jettySize=auto;html=1;exitX=1;exitY=0.5;exitDx=0;exitDy=0;entryX=0;entryY=0.5;entryDx=0;entryDy=0;" parent="1" source="eyhPEgxVy8rwkxTOJS7A-179" target="eyhPEgxVy8rwkxTOJS7A-187" edge="1">
          <mxGeometry relative="1" as="geometry" />
        </mxCell>
        <mxCell id="eyhPEgxVy8rwkxTOJS7A-179" value="Delete CMS" style="rhombus;whiteSpace=wrap;html=1;" parent="1" vertex="1">
          <mxGeometry x="1370" y="1340" width="135" height="80" as="geometry" />
        </mxCell>
        <mxCell id="eyhPEgxVy8rwkxTOJS7A-180" style="edgeStyle=orthogonalEdgeStyle;rounded=0;orthogonalLoop=1;jettySize=auto;html=1;entryX=0.5;entryY=1;entryDx=0;entryDy=0;" parent="1" source="eyhPEgxVy8rwkxTOJS7A-181" target="eyhPEgxVy8rwkxTOJS7A-170" edge="1">
          <mxGeometry relative="1" as="geometry" />
        </mxCell>
        <mxCell id="eyhPEgxVy8rwkxTOJS7A-181" value="Update CMS Content" style="rounded=1;whiteSpace=wrap;html=1;" parent="1" vertex="1">
          <mxGeometry x="1067.5" y="1450" width="120" height="60" as="geometry" />
        </mxCell>
        <mxCell id="eyhPEgxVy8rwkxTOJS7A-182" style="edgeStyle=orthogonalEdgeStyle;rounded=0;orthogonalLoop=1;jettySize=auto;html=1;exitX=0.5;exitY=1;exitDx=0;exitDy=0;" parent="1" source="eyhPEgxVy8rwkxTOJS7A-183" edge="1">
          <mxGeometry relative="1" as="geometry">
            <mxPoint x="970" y="1410" as="targetPoint" />
          </mxGeometry>
        </mxCell>
        <mxCell id="eyhPEgxVy8rwkxTOJS7A-183" value="Add new CMS Content" style="rounded=1;whiteSpace=wrap;html=1;" parent="1" vertex="1">
          <mxGeometry x="1225" y="1450" width="120" height="60" as="geometry" />
        </mxCell>
        <mxCell id="eyhPEgxVy8rwkxTOJS7A-184" style="edgeStyle=orthogonalEdgeStyle;rounded=0;orthogonalLoop=1;jettySize=auto;html=1;exitX=0.5;exitY=1;exitDx=0;exitDy=0;" parent="1" source="eyhPEgxVy8rwkxTOJS7A-185" edge="1">
          <mxGeometry relative="1" as="geometry">
            <mxPoint x="970" y="1410" as="targetPoint" />
          </mxGeometry>
        </mxCell>
        <mxCell id="eyhPEgxVy8rwkxTOJS7A-185" value="Delete old CMS Content" style="rounded=1;whiteSpace=wrap;html=1;" parent="1" vertex="1">
          <mxGeometry x="1377.5" y="1450" width="120" height="60" as="geometry" />
        </mxCell>
        <mxCell id="eyhPEgxVy8rwkxTOJS7A-186" style="edgeStyle=orthogonalEdgeStyle;rounded=0;orthogonalLoop=1;jettySize=auto;html=1;exitX=1;exitY=0.5;exitDx=0;exitDy=0;entryX=0;entryY=0.5;entryDx=0;entryDy=0;" parent="1" source="eyhPEgxVy8rwkxTOJS7A-187" target="eyhPEgxVy8rwkxTOJS7A-190" edge="1">
          <mxGeometry relative="1" as="geometry" />
        </mxCell>
        <mxCell id="eyhPEgxVy8rwkxTOJS7A-187" value="Check For Changes&amp;nbsp;" style="rounded=1;whiteSpace=wrap;html=1;" parent="1" vertex="1">
          <mxGeometry x="1600" y="1350" width="120" height="60" as="geometry" />
        </mxCell>
        <mxCell id="eyhPEgxVy8rwkxTOJS7A-188" style="edgeStyle=orthogonalEdgeStyle;rounded=0;orthogonalLoop=1;jettySize=auto;html=1;exitX=1;exitY=0.5;exitDx=0;exitDy=0;entryX=0;entryY=0.5;entryDx=0;entryDy=0;" parent="1" source="eyhPEgxVy8rwkxTOJS7A-190" target="eyhPEgxVy8rwkxTOJS7A-192" edge="1">
          <mxGeometry relative="1" as="geometry" />
        </mxCell>
        <mxCell id="eyhPEgxVy8rwkxTOJS7A-189" style="edgeStyle=orthogonalEdgeStyle;rounded=0;orthogonalLoop=1;jettySize=auto;html=1;entryX=0.546;entryY=-0.003;entryDx=0;entryDy=0;entryPerimeter=0;" parent="1" source="eyhPEgxVy8rwkxTOJS7A-190" target="eyhPEgxVy8rwkxTOJS7A-193" edge="1">
          <mxGeometry relative="1" as="geometry" />
        </mxCell>
        <mxCell id="eyhPEgxVy8rwkxTOJS7A-190" value="Found Changes" style="rhombus;whiteSpace=wrap;html=1;" parent="1" vertex="1">
          <mxGeometry x="1735" y="1340" width="135" height="80" as="geometry" />
        </mxCell>
        <mxCell id="eyhPEgxVy8rwkxTOJS7A-191" style="edgeStyle=orthogonalEdgeStyle;rounded=0;orthogonalLoop=1;jettySize=auto;html=1;entryX=1;entryY=0.5;entryDx=0;entryDy=0;" parent="1" source="eyhPEgxVy8rwkxTOJS7A-192" target="eyhPEgxVy8rwkxTOJS7A-193" edge="1">
          <mxGeometry relative="1" as="geometry">
            <Array as="points">
              <mxPoint x="1970" y="1550" />
            </Array>
          </mxGeometry>
        </mxCell>
        <mxCell id="eyhPEgxVy8rwkxTOJS7A-192" value="Save Changes" style="rounded=1;whiteSpace=wrap;html=1;" parent="1" vertex="1">
          <mxGeometry x="1910" y="1350" width="120" height="60" as="geometry" />
        </mxCell>
        <mxCell id="eyhPEgxVy8rwkxTOJS7A-196" style="edgeStyle=orthogonalEdgeStyle;rounded=0;orthogonalLoop=1;jettySize=auto;html=1;exitX=0.5;exitY=1;exitDx=0;exitDy=0;entryX=0;entryY=0.5;entryDx=0;entryDy=0;" parent="1" source="eyhPEgxVy8rwkxTOJS7A-193" target="eyhPEgxVy8rwkxTOJS7A-9" edge="1">
          <mxGeometry relative="1" as="geometry">
            <Array as="points">
              <mxPoint x="1840" y="1600" />
              <mxPoint x="130" y="1600" />
              <mxPoint x="130" y="270" />
            </Array>
          </mxGeometry>
        </mxCell>
        <mxCell id="eyhPEgxVy8rwkxTOJS7A-193" value="Display CMS Contetnt" style="rounded=1;whiteSpace=wrap;html=1;" parent="1" vertex="1">
          <mxGeometry x="1780" y="1520" width="120" height="60" as="geometry" />
        </mxCell>
        <mxCell id="eyhPEgxVy8rwkxTOJS7A-197" value="Admin" style="swimlane;whiteSpace=wrap;html=1;" parent="1" vertex="1">
          <mxGeometry x="18" y="-310" width="1572" height="1980" as="geometry" />
        </mxCell>
        <mxCell id="eyhPEgxVy8rwkxTOJS7A-4" value="Admin Connected to Admin portal" style="shape=note;whiteSpace=wrap;html=1;backgroundOutline=1;darkOpacity=0.05;" parent="eyhPEgxVy8rwkxTOJS7A-197" vertex="1">
          <mxGeometry x="32" y="75" width="140" height="100" as="geometry" />
        </mxCell>
        <mxCell id="eyhPEgxVy8rwkxTOJS7A-1" value="" style="ellipse;html=1;shape=startState;fillColor=#000000;strokeColor=#ff0000;" parent="eyhPEgxVy8rwkxTOJS7A-197" vertex="1">
          <mxGeometry x="252" y="110" width="30" height="30" as="geometry" />
        </mxCell>
        <mxCell id="eyhPEgxVy8rwkxTOJS7A-5" style="edgeStyle=orthogonalEdgeStyle;rounded=0;orthogonalLoop=1;jettySize=auto;html=1;entryX=0.112;entryY=0.513;entryDx=0;entryDy=0;entryPerimeter=0;endArrow=none;endFill=0;dashed=1;" parent="eyhPEgxVy8rwkxTOJS7A-197" source="eyhPEgxVy8rwkxTOJS7A-4" target="eyhPEgxVy8rwkxTOJS7A-1" edge="1">
          <mxGeometry relative="1" as="geometry" />
        </mxCell>
        <mxCell id="eyhPEgxVy8rwkxTOJS7A-2" value="" style="edgeStyle=orthogonalEdgeStyle;html=1;verticalAlign=bottom;endArrow=open;endSize=8;strokeColor=#ff0000;rounded=0;" parent="eyhPEgxVy8rwkxTOJS7A-197" source="eyhPEgxVy8rwkxTOJS7A-1" edge="1">
          <mxGeometry relative="1" as="geometry">
            <mxPoint x="267" y="200" as="targetPoint" />
          </mxGeometry>
        </mxCell>
        <mxCell id="eyhPEgxVy8rwkxTOJS7A-7" value="Login" style="rounded=1;whiteSpace=wrap;html=1;" parent="eyhPEgxVy8rwkxTOJS7A-197" vertex="1">
          <mxGeometry x="207" y="200" width="120" height="60" as="geometry" />
        </mxCell>
        <mxCell id="eyhPEgxVy8rwkxTOJS7A-198" value="System" style="swimlane;whiteSpace=wrap;html=1;" parent="1" vertex="1">
          <mxGeometry x="1590" y="-310" width="720" height="1980" as="geometry" />
        </mxCell>
        <mxCell id="HynmfDi4em25_DzNKIML-7" style="edgeStyle=orthogonalEdgeStyle;rounded=0;orthogonalLoop=1;jettySize=auto;html=1;entryX=1;entryY=0.5;entryDx=0;entryDy=0;" edge="1" parent="eyhPEgxVy8rwkxTOJS7A-198" source="HynmfDi4em25_DzNKIML-1" target="HynmfDi4em25_DzNKIML-6">
          <mxGeometry relative="1" as="geometry" />
        </mxCell>
        <mxCell id="HynmfDi4em25_DzNKIML-1" value="Correct Login Details" style="rhombus;whiteSpace=wrap;html=1;" vertex="1" parent="eyhPEgxVy8rwkxTOJS7A-198">
          <mxGeometry x="290" y="220" width="135" height="80" as="geometry" />
        </mxCell>
        <mxCell id="HynmfDi4em25_DzNKIML-4" style="edgeStyle=orthogonalEdgeStyle;rounded=0;orthogonalLoop=1;jettySize=auto;html=1;entryX=0.5;entryY=0;entryDx=0;entryDy=0;" edge="1" parent="eyhPEgxVy8rwkxTOJS7A-198" source="HynmfDi4em25_DzNKIML-2" target="HynmfDi4em25_DzNKIML-1">
          <mxGeometry relative="1" as="geometry" />
        </mxCell>
        <mxCell id="HynmfDi4em25_DzNKIML-2" value="Process Login" style="rounded=1;whiteSpace=wrap;html=1;" vertex="1" parent="eyhPEgxVy8rwkxTOJS7A-198">
          <mxGeometry x="297.5" y="130" width="120" height="60" as="geometry" />
        </mxCell>
        <mxCell id="HynmfDi4em25_DzNKIML-6" value="Message&quot; Incorrect login details&quot;" style="rounded=1;whiteSpace=wrap;html=1;" vertex="1" parent="eyhPEgxVy8rwkxTOJS7A-198">
          <mxGeometry x="90" y="230" width="120" height="60" as="geometry" />
        </mxCell>
        <mxCell id="HynmfDi4em25_DzNKIML-8" value="No" style="text;html=1;strokeColor=none;fillColor=none;align=center;verticalAlign=middle;whiteSpace=wrap;rounded=0;" vertex="1" parent="eyhPEgxVy8rwkxTOJS7A-198">
          <mxGeometry x="230" y="230" width="60" height="30" as="geometry" />
        </mxCell>
        <mxCell id="HynmfDi4em25_DzNKIML-9" value="Yes" style="text;html=1;strokeColor=none;fillColor=none;align=center;verticalAlign=middle;whiteSpace=wrap;rounded=0;" vertex="1" parent="eyhPEgxVy8rwkxTOJS7A-198">
          <mxGeometry x="297.5" y="320" width="60" height="30" as="geometry" />
        </mxCell>
        <mxCell id="HynmfDi4em25_DzNKIML-3" style="edgeStyle=orthogonalEdgeStyle;rounded=0;orthogonalLoop=1;jettySize=auto;html=1;entryX=0;entryY=0.5;entryDx=0;entryDy=0;exitX=1;exitY=0.5;exitDx=0;exitDy=0;" edge="1" parent="1" source="eyhPEgxVy8rwkxTOJS7A-7" target="HynmfDi4em25_DzNKIML-2">
          <mxGeometry relative="1" as="geometry">
            <Array as="points">
              <mxPoint x="380" y="-80" />
              <mxPoint x="380" y="-150" />
            </Array>
          </mxGeometry>
        </mxCell>
        <mxCell id="HynmfDi4em25_DzNKIML-5" style="edgeStyle=orthogonalEdgeStyle;rounded=0;orthogonalLoop=1;jettySize=auto;html=1;exitX=0.5;exitY=1;exitDx=0;exitDy=0;entryX=0.5;entryY=0;entryDx=0;entryDy=0;" edge="1" parent="1" source="HynmfDi4em25_DzNKIML-1" target="eyhPEgxVy8rwkxTOJS7A-9">
          <mxGeometry relative="1" as="geometry">
            <mxPoint x="353.75" y="190" as="targetPoint" />
            <Array as="points">
              <mxPoint x="1948" y="10" />
              <mxPoint x="285" y="10" />
            </Array>
          </mxGeometry>
        </mxCell>
        <mxCell id="HynmfDi4em25_DzNKIML-10" style="edgeStyle=orthogonalEdgeStyle;rounded=0;orthogonalLoop=1;jettySize=auto;html=1;entryX=0.5;entryY=1;entryDx=0;entryDy=0;" edge="1" parent="1" source="HynmfDi4em25_DzNKIML-6" target="eyhPEgxVy8rwkxTOJS7A-7">
          <mxGeometry relative="1" as="geometry">
            <Array as="points">
              <mxPoint x="285" y="-30" />
            </Array>
          </mxGeometry>
        </mxCell>
      </root>
    </mxGraphModel>
  </diagram>
</mxfile>
